<?xml version="1.0" encoding="UTF-8" standalone="no"?>
<!DOCTYPE svg PUBLIC "-//W3C//DTD SVG 1.1//EN"
 "http://www.w3.org/Graphics/SVG/1.1/DTD/svg11.dtd">
<!-- Generated by graphviz version 2.43.0 (0)
 -->
<!-- Title: ej01bt Pages: 1 -->
<svg width="850pt" height="260pt"
 viewBox="0.00 0.00 849.50 260.00" xmlns="http://www.w3.org/2000/svg" xmlns:xlink="http://www.w3.org/1999/xlink">
<g id="graph0" class="graph" transform="scale(1 1) rotate(0) translate(4 256)">
<title>ej01bt</title>
<polygon fill="white" stroke="transparent" points="-4,4 -4,-256 845.5,-256 845.5,4 -4,4"/>
<!-- root -->
<g id="node1" class="node">
<title>root</title>
<ellipse fill="none" stroke="black" cx="416.5" cy="-234" rx="60.39" ry="18"/>
<text text-anchor="middle" x="416.5" y="-230.3" font-family="Arial" font-size="14.00">{6,12,6},3,12</text>
</g>
<!-- p0 -->
<g id="node2" class="node">
<title>p0</title>
<polygon fill="none" stroke="black" points="359,-180 266,-180 266,-144 359,-144 359,-180"/>
<text text-anchor="middle" x="312.5" y="-158.3" font-family="Arial" font-size="14.00">{6,12,6},2,12</text>
</g>
<!-- root&#45;&gt;p0 -->
<g id="edge1" class="edge">
<title>root&#45;&gt;p0</title>
<path fill="none" stroke="black" d="M393.16,-217.29C379.44,-208.06 361.86,-196.22 346.61,-185.96"/>
<polygon fill="black" stroke="black" points="348.2,-182.81 337.95,-180.13 344.29,-188.61 348.2,-182.81"/>
</g>
<!-- p1 -->
<g id="node3" class="node">
<title>p1</title>
<polygon fill="none" stroke="black" points="565.5,-180 479.5,-180 479.5,-144 565.5,-144 565.5,-180"/>
<text text-anchor="middle" x="522.5" y="-158.3" font-family="Arial" font-size="14.00">{6,12,6},2,6</text>
</g>
<!-- root&#45;&gt;p1 -->
<g id="edge2" class="edge">
<title>root&#45;&gt;p1</title>
<path fill="none" stroke="black" d="M440.29,-217.29C454.4,-207.97 472.53,-196 488.17,-185.67"/>
<polygon fill="black" stroke="black" points="490.15,-188.56 496.56,-180.13 486.29,-182.72 490.15,-188.56"/>
</g>
<!-- p00 -->
<g id="node4" class="node">
<title>p00</title>
<polygon fill="none" stroke="black" points="201,-108 108,-108 108,-72 201,-72 201,-108"/>
<text text-anchor="middle" x="154.5" y="-86.3" font-family="Arial" font-size="14.00">{6,12,6},1,12</text>
</g>
<!-- p0&#45;&gt;p00 -->
<g id="edge3" class="edge">
<title>p0&#45;&gt;p00</title>
<path fill="none" stroke="black" d="M273.85,-143.88C252.25,-134.31 225.15,-122.3 202.23,-112.15"/>
<polygon fill="black" stroke="black" points="203.59,-108.92 193.03,-108.07 200.75,-115.32 203.59,-108.92"/>
</g>
<!-- p01 -->
<g id="node5" class="node">
<title>p01</title>
<polygon fill="none" stroke="black" points="355.5,-108 269.5,-108 269.5,-72 355.5,-72 355.5,-108"/>
<text text-anchor="middle" x="312.5" y="-86.3" font-family="Arial" font-size="14.00">{6,12,6},1,0</text>
</g>
<!-- p0&#45;&gt;p01 -->
<g id="edge4" class="edge">
<title>p0&#45;&gt;p01</title>
<path fill="none" stroke="black" d="M312.5,-143.7C312.5,-135.98 312.5,-126.71 312.5,-118.11"/>
<polygon fill="black" stroke="black" points="316,-118.1 312.5,-108.1 309,-118.1 316,-118.1"/>
</g>
<!-- p10 -->
<g id="node6" class="node">
<title>p10</title>
<polygon fill="none" stroke="black" points="565.5,-108 479.5,-108 479.5,-72 565.5,-72 565.5,-108"/>
<text text-anchor="middle" x="522.5" y="-86.3" font-family="Arial" font-size="14.00">{6,12,6},1,6</text>
</g>
<!-- p1&#45;&gt;p10 -->
<g id="edge5" class="edge">
<title>p1&#45;&gt;p10</title>
<path fill="none" stroke="black" d="M522.5,-143.7C522.5,-135.98 522.5,-126.71 522.5,-118.11"/>
<polygon fill="black" stroke="black" points="526,-118.1 522.5,-108.1 519,-118.1 526,-118.1"/>
</g>
<!-- p11 -->
<g id="node7" class="node">
<title>p11</title>
<polygon fill="none" stroke="red" points="725.5,-108 635.5,-108 635.5,-72 725.5,-72 725.5,-108"/>
<text text-anchor="middle" x="680.5" y="-86.3" font-family="Arial" font-size="14.00" fill="red">{6,12,6},1,&#45;6</text>
</g>
<!-- p1&#45;&gt;p11 -->
<g id="edge6" class="edge">
<title>p1&#45;&gt;p11</title>
<path fill="none" stroke="black" d="M561.15,-143.88C582.75,-134.31 609.85,-122.3 632.77,-112.15"/>
<polygon fill="black" stroke="black" points="634.25,-115.32 641.97,-108.07 631.41,-108.92 634.25,-115.32"/>
</g>
<!-- p000 -->
<g id="node8" class="node">
<title>p000</title>
<polygon fill="none" stroke="red" points="93,-36 0,-36 0,0 93,0 93,-36"/>
<text text-anchor="middle" x="46.5" y="-14.3" font-family="Arial" font-size="14.00" fill="red">{6,12,6},0,12</text>
</g>
<!-- p00&#45;&gt;p000 -->
<g id="edge7" class="edge">
<title>p00&#45;&gt;p000</title>
<path fill="none" stroke="black" d="M128.08,-71.88C114.09,-62.81 96.72,-51.55 81.61,-41.76"/>
<polygon fill="black" stroke="black" points="83.32,-38.69 73.02,-36.19 79.51,-44.57 83.32,-38.69"/>
</g>
<!-- p001 -->
<g id="node9" class="node">
<title>p001</title>
<polygon fill="none" stroke="red" points="197.5,-36 111.5,-36 111.5,0 197.5,0 197.5,-36"/>
<text text-anchor="middle" x="154.5" y="-14.3" font-family="Arial" font-size="14.00" fill="red">{6,12,6},0,6</text>
</g>
<!-- p00&#45;&gt;p001 -->
<g id="edge8" class="edge">
<title>p00&#45;&gt;p001</title>
<path fill="none" stroke="black" d="M154.5,-71.7C154.5,-63.98 154.5,-54.71 154.5,-46.11"/>
<polygon fill="black" stroke="black" points="158,-46.1 154.5,-36.1 151,-46.1 158,-46.1"/>
</g>
<!-- p010 -->
<g id="node10" class="node">
<title>p010</title>
<polygon fill="none" stroke="green" points="301.5,-36 215.5,-36 215.5,0 301.5,0 301.5,-36"/>
<text text-anchor="middle" x="258.5" y="-14.3" font-family="Arial" font-size="14.00" fill="green">{6,12,6},0,0</text>
</g>
<!-- p01&#45;&gt;p010 -->
<g id="edge9" class="edge">
<title>p01&#45;&gt;p010</title>
<path fill="none" stroke="black" d="M299.15,-71.7C292.74,-63.39 284.94,-53.28 277.89,-44.14"/>
<polygon fill="black" stroke="black" points="280.57,-41.88 271.69,-36.1 275.03,-46.16 280.57,-41.88"/>
</g>
<!-- p011 -->
<g id="node11" class="node">
<title>p011</title>
<polygon fill="none" stroke="red" points="409.5,-36 319.5,-36 319.5,0 409.5,0 409.5,-36"/>
<text text-anchor="middle" x="364.5" y="-14.3" font-family="Arial" font-size="14.00" fill="red">{6,12,6},0,&#45;6</text>
</g>
<!-- p01&#45;&gt;p011 -->
<g id="edge10" class="edge">
<title>p01&#45;&gt;p011</title>
<path fill="none" stroke="black" d="M325.35,-71.7C331.53,-63.39 339.04,-53.28 345.82,-44.14"/>
<polygon fill="black" stroke="black" points="348.64,-46.22 351.79,-36.1 343.02,-42.04 348.64,-46.22"/>
</g>
<!-- p100 -->
<g id="node12" class="node">
<title>p100</title>
<polygon fill="none" stroke="red" points="513.5,-36 427.5,-36 427.5,0 513.5,0 513.5,-36"/>
<text text-anchor="middle" x="470.5" y="-14.3" font-family="Arial" font-size="14.00" fill="red">{6,12,6},0,6</text>
</g>
<!-- p10&#45;&gt;p100 -->
<g id="edge11" class="edge">
<title>p10&#45;&gt;p100</title>
<path fill="none" stroke="black" d="M509.65,-71.7C503.47,-63.39 495.96,-53.28 489.18,-44.14"/>
<polygon fill="black" stroke="black" points="491.98,-42.04 483.21,-36.1 486.36,-46.22 491.98,-42.04"/>
</g>
<!-- p101 -->
<g id="node13" class="node">
<title>p101</title>
<polygon fill="none" stroke="green" points="617.5,-36 531.5,-36 531.5,0 617.5,0 617.5,-36"/>
<text text-anchor="middle" x="574.5" y="-14.3" font-family="Arial" font-size="14.00" fill="green">{6,12,6},0,0</text>
</g>
<!-- p10&#45;&gt;p101 -->
<g id="edge12" class="edge">
<title>p10&#45;&gt;p101</title>
<path fill="none" stroke="black" d="M535.35,-71.7C541.53,-63.39 549.04,-53.28 555.82,-44.14"/>
<polygon fill="black" stroke="black" points="558.64,-46.22 561.79,-36.1 553.02,-42.04 558.64,-46.22"/>
</g>
<!-- p110 -->
<g id="node14" class="node">
<title>p110</title>
<polygon fill="none" stroke="red" points="725.5,-36 635.5,-36 635.5,0 725.5,0 725.5,-36"/>
<text text-anchor="middle" x="680.5" y="-14.3" font-family="Arial" font-size="14.00" fill="red">{6,12,6},0,&#45;6</text>
</g>
<!-- p11&#45;&gt;p110 -->
<g id="edge13" class="edge">
<title>p11&#45;&gt;p110</title>
<path fill="none" stroke="black" d="M680.5,-71.7C680.5,-63.98 680.5,-54.71 680.5,-46.11"/>
<polygon fill="black" stroke="black" points="684,-46.1 680.5,-36.1 677,-46.1 684,-46.1"/>
</g>
<!-- p111 -->
<g id="node15" class="node">
<title>p111</title>
<polygon fill="none" stroke="red" points="841.5,-36 743.5,-36 743.5,0 841.5,0 841.5,-36"/>
<text text-anchor="middle" x="792.5" y="-14.3" font-family="Arial" font-size="14.00" fill="red">{6,12,6},0,&#45;12</text>
</g>
<!-- p11&#45;&gt;p111 -->
<g id="edge14" class="edge">
<title>p11&#45;&gt;p111</title>
<path fill="none" stroke="black" d="M707.9,-71.88C722.41,-62.81 740.42,-51.55 756.09,-41.76"/>
<polygon fill="black" stroke="black" points="758.37,-44.46 765,-36.19 754.66,-38.52 758.37,-44.46"/>
</g>
</g>
</svg>
