<?xml version="1.0" encoding="UTF-8" standalone="no"?>
<!DOCTYPE svg PUBLIC "-//W3C//DTD SVG 1.1//EN"
 "http://www.w3.org/Graphics/SVG/1.1/DTD/svg11.dtd">
<!-- Generated by graphviz version 2.43.0 (0)
 -->
<!-- Title: ej01bt Pages: 1 -->
<svg width="582pt" height="260pt"
 viewBox="0.00 0.00 582.00 260.00" xmlns="http://www.w3.org/2000/svg" xmlns:xlink="http://www.w3.org/1999/xlink">
<g id="graph0" class="graph" transform="scale(1 1) rotate(0) translate(4 256)">
<title>ej01bt</title>
<polygon fill="white" stroke="transparent" points="-4,4 -4,-256 578,-256 578,4 -4,4"/>
<!-- root -->
<g id="node1" class="node">
<title>root</title>
<ellipse fill="none" stroke="black" cx="287" cy="-234" rx="27" ry="18"/>
<text text-anchor="middle" x="287" y="-230.3" font-family="Arial" font-size="14.00">()</text>
</g>
<!-- p0 -->
<g id="node2" class="node">
<title>p0</title>
<polygon fill="none" stroke="black" points="240,-180 186,-180 186,-144 240,-144 240,-180"/>
<text text-anchor="middle" x="213" y="-158.3" font-family="Arial" font-size="14.00">(0)</text>
</g>
<!-- root&#45;&gt;p0 -->
<g id="edge1" class="edge">
<title>root&#45;&gt;p0</title>
<path fill="none" stroke="black" d="M272.02,-218.83C262.42,-209.75 249.69,-197.71 238.52,-187.14"/>
<polygon fill="black" stroke="black" points="240.76,-184.44 231.09,-180.11 235.95,-189.53 240.76,-184.44"/>
</g>
<!-- p1 -->
<g id="node3" class="node">
<title>p1</title>
<polygon fill="none" stroke="black" points="388,-180 334,-180 334,-144 388,-144 388,-180"/>
<text text-anchor="middle" x="361" y="-158.3" font-family="Arial" font-size="14.00">(1)</text>
</g>
<!-- root&#45;&gt;p1 -->
<g id="edge2" class="edge">
<title>root&#45;&gt;p1</title>
<path fill="none" stroke="black" d="M301.98,-218.83C311.58,-209.75 324.31,-197.71 335.48,-187.14"/>
<polygon fill="black" stroke="black" points="338.05,-189.53 342.91,-180.11 333.24,-184.44 338.05,-189.53"/>
</g>
<!-- p00 -->
<g id="node4" class="node">
<title>p00</title>
<polygon fill="none" stroke="black" points="129,-108 75,-108 75,-72 129,-72 129,-108"/>
<text text-anchor="middle" x="102" y="-86.3" font-family="Arial" font-size="14.00">(0,0)</text>
</g>
<!-- p0&#45;&gt;p00 -->
<g id="edge3" class="edge">
<title>p0&#45;&gt;p00</title>
<path fill="none" stroke="black" d="M185.85,-143.88C171.47,-134.81 153.62,-123.55 138.09,-113.76"/>
<polygon fill="black" stroke="black" points="139.58,-110.56 129.26,-108.19 135.85,-116.48 139.58,-110.56"/>
</g>
<!-- p01 -->
<g id="node5" class="node">
<title>p01</title>
<polygon fill="none" stroke="black" points="240,-108 186,-108 186,-72 240,-72 240,-108"/>
<text text-anchor="middle" x="213" y="-86.3" font-family="Arial" font-size="14.00">(0,1)</text>
</g>
<!-- p0&#45;&gt;p01 -->
<g id="edge4" class="edge">
<title>p0&#45;&gt;p01</title>
<path fill="none" stroke="black" d="M213,-143.7C213,-135.98 213,-126.71 213,-118.11"/>
<polygon fill="black" stroke="black" points="216.5,-118.1 213,-108.1 209.5,-118.1 216.5,-118.1"/>
</g>
<!-- p10 -->
<g id="node6" class="node">
<title>p10</title>
<polygon fill="none" stroke="black" points="388,-108 334,-108 334,-72 388,-72 388,-108"/>
<text text-anchor="middle" x="361" y="-86.3" font-family="Arial" font-size="14.00">(1,0)</text>
</g>
<!-- p1&#45;&gt;p10 -->
<g id="edge5" class="edge">
<title>p1&#45;&gt;p10</title>
<path fill="none" stroke="black" d="M361,-143.7C361,-135.98 361,-126.71 361,-118.11"/>
<polygon fill="black" stroke="black" points="364.5,-118.1 361,-108.1 357.5,-118.1 364.5,-118.1"/>
</g>
<!-- p11 -->
<g id="node7" class="node">
<title>p11</title>
<polygon fill="none" stroke="red" points="499,-108 445,-108 445,-72 499,-72 499,-108"/>
<text text-anchor="middle" x="472" y="-86.3" font-family="Arial" font-size="14.00" fill="red">(1,1)</text>
</g>
<!-- p1&#45;&gt;p11 -->
<g id="edge6" class="edge">
<title>p1&#45;&gt;p11</title>
<path fill="none" stroke="red" d="M388.15,-143.88C402.53,-134.81 420.38,-123.55 435.91,-113.76"/>
<polygon fill="red" stroke="red" points="438.15,-116.48 444.74,-108.19 434.42,-110.56 438.15,-116.48"/>
</g>
<!-- p000 -->
<g id="node8" class="node">
<title>p000</title>
<polygon fill="none" stroke="black" stroke-dasharray="5,2" points="56,-36 0,-36 0,0 56,0 56,-36"/>
<text text-anchor="middle" x="28" y="-14.3" font-family="Arial" font-size="14.00">(0,0,0)</text>
</g>
<!-- p00&#45;&gt;p000 -->
<g id="edge7" class="edge">
<title>p00&#45;&gt;p000</title>
<path fill="none" stroke="black" d="M83.71,-71.7C74.57,-63.05 63.36,-52.45 53.4,-43.03"/>
<polygon fill="black" stroke="black" points="55.75,-40.43 46.08,-36.1 50.94,-45.52 55.75,-40.43"/>
</g>
<!-- p001 -->
<g id="node9" class="node">
<title>p001</title>
<polygon fill="none" stroke="black" stroke-dasharray="5,2" points="130,-36 74,-36 74,0 130,0 130,-36"/>
<text text-anchor="middle" x="102" y="-14.3" font-family="Arial" font-size="14.00">(0,0,1)</text>
</g>
<!-- p00&#45;&gt;p001 -->
<g id="edge8" class="edge">
<title>p00&#45;&gt;p001</title>
<path fill="none" stroke="black" d="M102,-71.7C102,-63.98 102,-54.71 102,-46.11"/>
<polygon fill="black" stroke="black" points="105.5,-46.1 102,-36.1 98.5,-46.1 105.5,-46.1"/>
</g>
<!-- p010 -->
<g id="node10" class="node">
<title>p010</title>
<polygon fill="none" stroke="black" points="204,-36 148,-36 148,0 204,0 204,-36"/>
<text text-anchor="middle" x="176" y="-14.3" font-family="Arial" font-size="14.00">(0,1,0)</text>
</g>
<!-- p01&#45;&gt;p010 -->
<g id="edge9" class="edge">
<title>p01&#45;&gt;p010</title>
<path fill="none" stroke="black" d="M203.85,-71.7C199.6,-63.64 194.44,-53.89 189.73,-44.98"/>
<polygon fill="black" stroke="black" points="192.81,-43.31 185.04,-36.1 186.62,-46.58 192.81,-43.31"/>
</g>
<!-- p011 -->
<g id="node11" class="node">
<title>p011</title>
<polygon fill="none" stroke="black" stroke-dasharray="5,2" points="278,-36 222,-36 222,0 278,0 278,-36"/>
<text text-anchor="middle" x="250" y="-14.3" font-family="Arial" font-size="14.00">(0,1,1)</text>
</g>
<!-- p01&#45;&gt;p011 -->
<g id="edge10" class="edge">
<title>p01&#45;&gt;p011</title>
<path fill="none" stroke="black" d="M222.15,-71.7C226.4,-63.64 231.56,-53.89 236.27,-44.98"/>
<polygon fill="black" stroke="black" points="239.38,-46.58 240.96,-36.1 233.19,-43.31 239.38,-46.58"/>
</g>
<!-- p100 -->
<g id="node12" class="node">
<title>p100</title>
<polygon fill="none" stroke="black" stroke-dasharray="5,2" points="352,-36 296,-36 296,0 352,0 352,-36"/>
<text text-anchor="middle" x="324" y="-14.3" font-family="Arial" font-size="14.00">(1,0,0)</text>
</g>
<!-- p10&#45;&gt;p100 -->
<g id="edge11" class="edge">
<title>p10&#45;&gt;p100</title>
<path fill="none" stroke="black" d="M351.85,-71.7C347.6,-63.64 342.44,-53.89 337.73,-44.98"/>
<polygon fill="black" stroke="black" points="340.81,-43.31 333.04,-36.1 334.62,-46.58 340.81,-43.31"/>
</g>
<!-- p101 -->
<g id="node13" class="node">
<title>p101</title>
<polygon fill="none" stroke="black" points="426,-36 370,-36 370,0 426,0 426,-36"/>
<text text-anchor="middle" x="398" y="-14.3" font-family="Arial" font-size="14.00">(1,0,1)</text>
</g>
<!-- p10&#45;&gt;p101 -->
<g id="edge12" class="edge">
<title>p10&#45;&gt;p101</title>
<path fill="none" stroke="black" d="M370.15,-71.7C374.4,-63.64 379.56,-53.89 384.27,-44.98"/>
<polygon fill="black" stroke="black" points="387.38,-46.58 388.96,-36.1 381.19,-43.31 387.38,-46.58"/>
</g>
<!-- p110 -->
<g id="node14" class="node">
<title>p110</title>
<polygon fill="none" stroke="red" points="500,-36 444,-36 444,0 500,0 500,-36"/>
<text text-anchor="middle" x="472" y="-14.3" font-family="Arial" font-size="14.00" fill="red">(1,1,0)</text>
</g>
<!-- p11&#45;&gt;p110 -->
<g id="edge13" class="edge">
<title>p11&#45;&gt;p110</title>
<path fill="none" stroke="red" d="M472,-71.7C472,-63.98 472,-54.71 472,-46.11"/>
<polygon fill="red" stroke="red" points="475.5,-46.1 472,-36.1 468.5,-46.1 475.5,-46.1"/>
</g>
<!-- p111 -->
<g id="node15" class="node">
<title>p111</title>
<polygon fill="none" stroke="red" points="574,-36 518,-36 518,0 574,0 574,-36"/>
<text text-anchor="middle" x="546" y="-14.3" font-family="Arial" font-size="14.00" fill="red">(1,1,1)</text>
</g>
<!-- p11&#45;&gt;p111 -->
<g id="edge14" class="edge">
<title>p11&#45;&gt;p111</title>
<path fill="none" stroke="red" d="M490.29,-71.7C499.43,-63.05 510.64,-52.45 520.6,-43.03"/>
<polygon fill="red" stroke="red" points="523.06,-45.52 527.92,-36.1 518.25,-40.43 523.06,-45.52"/>
</g>
</g>
</svg>
