<svg width="399pt" height="310pt" viewBox="0.00 0.00 398.78 310.40" xmlns="http://www.w3.org/2000/svg" xmlns:xlink="http://www.w3.org/1999/xlink">
<g id="graph0" class="graph" transform="scale(1 1) rotate(0) translate(4 306.4)">
<title>G</title>
<polygon fill="white" stroke="none" points="-4,4 -4,-306.4 394.78,-306.4 394.78,4 -4,4"/>
<!-- N0 -->
<g id="node1" class="node">
<title>N0</title>
<polygon fill="none" stroke="black" points="176.25,-302.4 105,-302.4 105,-266.4 176.25,-266.4 176.25,-302.4"/>
<text text-anchor="middle" x="140.62" y="-280.2" font-family="Arial" font-size="14.00">(i=3, j=1)</text>
</g>
<!-- N1 -->
<g id="node2" class="node">
<title>N1</title>
<polygon fill="none" stroke="black" points="132.25,-213.6 61,-213.6 61,-177.6 132.25,-177.6 132.25,-213.6"/>
<text text-anchor="middle" x="96.62" y="-191.4" font-family="Arial" font-size="14.00">(i=2, j=1)</text>
</g>
<!-- N0&#45;&gt;N1 -->
<g id="edge1" class="edge">
<title>N0-&gt;N1</title>
<path fill="none" stroke="black" d="M122.43,-266.12C117.7,-260.82 113,-254.71 109.67,-248.4 105.83,-241.13 103.09,-232.67 101.14,-224.73"/>
<polygon fill="black" stroke="black" points="104.61,-224.22 99.13,-215.15 97.75,-225.65 104.61,-224.22"/>
<text text-anchor="middle" x="134.65" y="-235.8" font-family="Times,serif" font-size="14.00">ss'c(2, 1)</text>
</g>
<!-- N2 -->
<g id="node3" class="node">
<title>N2</title>
<polygon fill="none" stroke="black" points="221.25,-213.6 150,-213.6 150,-177.6 221.25,-177.6 221.25,-213.6"/>
<text text-anchor="middle" x="185.62" y="-191.4" font-family="Arial" font-size="14.00">(i=2, j=0)</text>
</g>
<!-- N0&#45;&gt;N2 -->
<g id="edge2" class="edge">
<title>N0-&gt;N2</title>
<path fill="none" stroke="black" d="M150.21,-266.01C153.25,-260.41 156.62,-254.16 159.62,-248.4 163.72,-240.55 168.08,-231.98 172.02,-224.1"/>
<polygon fill="black" stroke="black" points="175.09,-225.8 176.42,-215.29 168.82,-222.68 175.09,-225.8"/>
<text text-anchor="middle" x="192.61" y="-235.8" font-family="Times,serif" font-size="14.00">ss'c(2, 0)</text>
</g>
<!-- N3 -->
<g id="node4" class="node">
<title>N3</title>
<polygon fill="none" stroke="black" points="71.25,-124.8 0,-124.8 0,-88.8 71.25,-88.8 71.25,-124.8"/>
<text text-anchor="middle" x="35.62" y="-102.6" font-family="Arial" font-size="14.00">(i=1, j=1)</text>
</g>
<!-- N1&#45;&gt;N3 -->
<g id="edge3" class="edge">
<title>N1-&gt;N3</title>
<path fill="none" stroke="black" d="M60.62,-181.33C51.2,-176.05 42.16,-168.95 36.67,-159.6 32.67,-152.8 31.29,-144.59 31.2,-136.72"/>
<polygon fill="black" stroke="black" points="34.69,-136.98 31.8,-126.79 27.7,-136.56 34.69,-136.98"/>
<text text-anchor="middle" x="61.65" y="-147" font-family="Times,serif" font-size="14.00">ss'c(1, 1)</text>
</g>
<!-- N4 -->
<g id="node5" class="node">
<title>N4</title>
<polygon fill="none" stroke="red" points="317.25,-124.8 246,-124.8 246,-88.8 317.25,-88.8 317.25,-124.8"/>
<text text-anchor="middle" x="281.62" y="-102.6" font-family="Arial" font-size="14.00">(i=1, j=0)</text>
</g>
<!-- N1&#45;&gt;N4 -->
<g id="edge4" class="edge">
<title>N1-&gt;N4</title>
<path fill="none" stroke="black" d="M117.49,-177.2C131.73,-166.06 151.42,-152.01 170.67,-142.8 196.53,-130.42 205.3,-133.5 232.62,-124.8 233.41,-124.55 234.21,-124.29 235.01,-124.04"/>
<polygon fill="black" stroke="black" points="235.74,-127.48 244.13,-121.02 233.54,-120.84 235.74,-127.48"/>
<text text-anchor="middle" x="195.65" y="-147" font-family="Times,serif" font-size="14.00">ss'c(1, 0)</text>
</g>
<!-- N2&#45;&gt;N4 -->
<g id="edge5" class="edge">
<title>N2-&gt;N4</title>
<path fill="none" stroke="black" d="M204.59,-177.45C218.7,-164.69 238.17,-147.09 254,-132.77"/>
<polygon fill="black" stroke="black" points="256.18,-135.53 261.25,-126.23 251.48,-130.34 256.18,-135.53"/>
<text text-anchor="middle" x="267.2" y="-147" font-family="Times,serif" font-size="14.00">ss'c(1, 0)</text>
</g>
<!-- N6 -->
<g id="node7" class="node">
<title>N6</title>
<polygon fill="none" stroke="black" points="184.25,-36 113,-36 113,0 184.25,0 184.25,-36"/>
<text text-anchor="middle" x="148.62" y="-13.8" font-family="Arial" font-size="14.00">(i=0, j=0)</text>
</g>
<!-- N2&#45;&gt;N6 -->
<g id="edge6" class="edge">
<title>N2-&gt;N6</title>
<path fill="none" stroke="black" d="M183.1,-177.14C179.07,-150.41 170.52,-97.84 159.62,-54 159.08,-51.82 158.48,-49.58 157.85,-47.33"/>
<polygon fill="black" stroke="black" points="161.2,-46.34 154.97,-37.78 154.5,-48.36 161.2,-46.34"/>
<text text-anchor="middle" x="201.62" y="-102.6" font-family="Times,serif" font-size="14.00">ss'c(1, -1)</text>
</g>
<!-- N5 -->
<g id="node6" class="node">
<title>N5</title>
<polygon fill="none" stroke="black" points="71.25,-36 0,-36 0,0 71.25,0 71.25,-36"/>
<text text-anchor="middle" x="35.62" y="-13.8" font-family="Arial" font-size="14.00">(i=0, j=1)</text>
</g>
<!-- N3&#45;&gt;N5 -->
<g id="edge7" class="edge">
<title>N3-&gt;N5</title>
<path fill="none" stroke="black" d="M35.62,-88.65C35.62,-76.96 35.62,-61.19 35.62,-47.62"/>
<polygon fill="black" stroke="black" points="39.12,-47.92 35.62,-37.92 32.12,-47.92 39.12,-47.92"/>
<text text-anchor="middle" x="60.6" y="-58.2" font-family="Times,serif" font-size="14.00">ss'c(0, 1)</text>
</g>
<!-- N3&#45;&gt;N6 -->
<g id="edge8" class="edge">
<title>N3-&gt;N6</title>
<path fill="none" stroke="black" d="M61.91,-88.46C69.95,-82.97 78.75,-76.77 86.62,-70.8 97.86,-62.28 109.84,-52.46 120.24,-43.68"/>
<polygon fill="black" stroke="black" points="122.42,-46.42 127.76,-37.27 117.88,-41.09 122.42,-46.42"/>
<text text-anchor="middle" x="132.5" y="-58.2" font-family="Times,serif" font-size="14.00">ss'c(0, 0)</text>
</g>
<!-- N7 -->
<g id="node8" class="node">
<title>N7</title>
<polygon fill="none" stroke="red" points="295.25,-36 224,-36 224,0 295.25,0 295.25,-36"/>
<text text-anchor="middle" x="259.62" y="-13.8" font-family="Arial" font-size="14.00">(i=1, j=0)</text>
</g>
<!-- N4&#45;&gt;N7 -->
<g id="edge9" class="edge">
<title>N4-&gt;N7</title>
<path fill="none" stroke="black" d="M277.28,-88.65C274.28,-76.84 270.24,-60.87 266.77,-47.21"/>
<polygon fill="black" stroke="black" points="270.26,-46.71 264.41,-37.88 263.47,-48.43 270.26,-46.71"/>
<text text-anchor="middle" x="297.57" y="-58.2" font-family="Times,serif" font-size="14.00">ss'c(0, 0)</text>
</g>
<!-- N8 -->
<g id="node9" class="node">
<title>N8</title>
<polygon fill="none" stroke="red" points="384.25,-36 313,-36 313,0 384.25,0 384.25,-36"/>
<text text-anchor="middle" x="348.62" y="-13.8" font-family="Arial" font-size="14.00">(i=0, j=0)</text>
</g>
<!-- N4&#45;&gt;N8 -->
<g id="edge10" class="edge">
<title>N4-&gt;N8</title>
<path fill="none" stroke="black" d="M308.4,-88.56C314.97,-83.42 321.56,-77.39 326.62,-70.8 332.03,-63.77 336.37,-55.22 339.72,-47.1"/>
<polygon fill="black" stroke="black" points="342.93,-48.5 343.15,-37.91 336.37,-46.05 342.93,-48.5"/>
<text text-anchor="middle" x="363.47" y="-58.2" font-family="Times,serif" font-size="14.00">ss'c(0, -1)</text>
</g>
</g>
</svg>